<svg width="31571" height="12848" viewBox="0 0 31571 12848" fill="none" xmlns="http://www.w3.org/2000/svg">
<g clip-path="url(#clip0_435_11)">
<rect width="31571" height="12848" fill="white"/>
<path d="M6102.51 2494.13C11923.5 8910.13 14813 5383.63 20268 1503.28C25723 -2377.07 18143 12195 17846 10269.6C17549 8344.28 7377.01 12182.1 10521.5 9802.63C13666 7423.13 5550.01 10269.6 5550.01 10269.6C5550.01 10269.6 8949.5 7505.03 3468.01 5936.13C-2013.48 4367.24 6102.51 2494.13 6102.51 2494.13Z" fill="url(#paint0_linear_435_11)"/>
<ellipse cx="3526.5" cy="4498.5" rx="339.5" ry="318.5" fill="#D9D9D9"/>
<path d="M23296.2 870.998C23296.2 870.998 25972.7 -152.705 26772.4 1624.54C27572.2 3401.78 22678.9 4188.86 25206.7 2329.12C27734.6 469.387 21730.5 1575.58 21730.5 1575.58L23296.2 870.998Z" fill="url(#paint1_linear_435_11)"/>
</g>
<defs>
<linearGradient id="paint0_linear_435_11" x1="11901.9" y1="843" x2="11901.9" y2="10608.8" gradientUnits="userSpaceOnUse">
<stop stop-color="#00B4D8"/>
<stop offset="1" stop-color="#CAF0F8" stop-opacity="0"/>
</linearGradient>
<linearGradient id="paint1_linear_435_11" x1="26550.4" y1="1131.24" x2="22375.9" y2="3009.82" gradientUnits="userSpaceOnUse">
<stop stop-color="#00B4D8"/>
<stop offset="1" stop-color="#CAF0F8"/>
</linearGradient>
<clipPath id="clip0_435_11">
<rect width="31571" height="12848" fill="white"/>
</clipPath>
</defs>
</svg>
